<svg xmlns="http://www.w3.org/2000/svg" width="204.27" height="35" viewBox="0 0 204.27 35"><rect class="svg__rect" x="0" y="0" width="124.37" height="35" fill="#005384"/><rect class="svg__rect" x="122.37" y="0" width="81.9" height="35" fill="#3AC1D0"/><path class="svg__text" d="M15.70 22L14.22 22L14.22 13.47L19.64 13.47L19.64 14.66L15.70 14.66L15.70 17.20L19.13 17.20L19.13 18.38L15.70 18.38L15.70 22ZM25.28 22L23.80 22L23.80 13.47L26.80 13.47Q28.27 13.47 29.08 14.13Q29.88 14.79 29.88 16.05L29.88 16.05Q29.88 16.90 29.47 17.48Q29.05 18.06 28.31 18.37L28.31 18.37L30.23 21.92L30.23 22L28.64 22L26.93 18.71L25.28 18.71L25.28 22ZM25.28 14.66L25.28 17.52L26.80 17.52Q27.55 17.52 27.98 17.15Q28.40 16.77 28.40 16.11L28.40 16.11Q28.40 15.43 28.01 15.05Q27.62 14.68 26.84 14.66L26.84 14.66L25.28 14.66ZM35.05 22L33.51 22L36.73 13.47L38.06 13.47L41.29 22L39.75 22L39.05 20.01L35.74 20.01L35.05 22ZM37.40 15.28L36.16 18.82L38.63 18.82L37.40 15.28ZM46.73 22L45.25 22L45.25 13.47L47.17 13.47L49.63 20.01L52.09 13.47L54.00 13.47L54.00 22L52.53 22L52.53 19.19L52.67 15.43L50.15 22L49.09 22L46.58 15.43L46.73 19.19L46.73 22ZM64.32 22L58.74 22L58.74 13.47L64.28 13.47L64.28 14.66L60.23 14.66L60.23 17.02L63.73 17.02L63.73 18.19L60.23 18.19L60.23 20.82L64.32 20.82L64.32 22ZM69.90 22L67.93 13.47L69.40 13.47L70.72 19.88L72.35 13.47L73.60 13.47L75.21 19.89L76.52 13.47L77.99 13.47L76.02 22L74.60 22L72.98 15.77L71.32 22L69.90 22ZM81.79 18.00L81.79 18.00L81.79 17.52Q81.79 16.28 82.24 15.32Q82.68 14.37 83.48 13.86Q84.29 13.35 85.33 13.35Q86.38 13.35 87.18 13.85Q87.99 14.35 88.43 15.29Q88.87 16.23 88.87 17.48L88.87 17.48L88.87 17.96Q88.87 19.21 88.44 20.16Q88.00 21.10 87.20 21.61Q86.39 22.12 85.34 22.12L85.34 22.12Q84.31 22.12 83.50 21.61Q82.68 21.10 82.24 20.17Q81.80 19.23 81.79 18.00ZM83.28 17.46L83.28 17.96Q83.28 19.36 83.82 20.13Q84.37 20.90 85.34 20.90L85.34 20.90Q86.33 20.90 86.86 20.15Q87.39 19.40 87.39 17.96L87.39 17.96L87.39 17.51Q87.39 16.09 86.85 15.34Q86.32 14.58 85.33 14.58L85.33 14.58Q84.37 14.58 83.83 15.33Q83.29 16.09 83.28 17.46L83.28 17.46ZM94.82 22L93.34 22L93.34 13.47L96.34 13.47Q97.81 13.47 98.62 14.13Q99.42 14.79 99.42 16.05L99.42 16.05Q99.42 16.90 99.01 17.48Q98.59 18.06 97.85 18.37L97.85 18.37L99.77 21.92L99.77 22L98.18 22L96.47 18.71L94.82 18.71L94.82 22ZM94.82 14.66L94.82 17.52L96.34 17.52Q97.09 17.52 97.51 17.15Q97.94 16.77 97.94 16.11L97.94 16.11Q97.94 15.43 97.55 15.05Q97.16 14.68 96.38 14.66L96.38 14.66L94.82 14.66ZM105.30 22L103.81 22L103.81 13.47L105.30 13.47L105.30 17.47L106.12 16.46L108.61 13.47L110.40 13.47L107.23 17.25L110.59 22L108.83 22L106.26 18.31L105.30 19.34L105.30 22Z" fill="#FFFFFF"/><path class="svg__text" d="M138.94 22L136.56 22L136.56 13.60L140.40 13.60Q141.54 13.60 142.38 13.98Q143.22 14.35 143.68 15.06Q144.13 15.76 144.13 16.71L144.13 16.71Q144.13 17.62 143.71 18.30Q143.28 18.98 142.49 19.36L142.49 19.36L144.30 22L141.76 22L140.23 19.77L138.94 19.77L138.94 22ZM138.94 15.47L138.94 17.93L140.26 17.93Q140.99 17.93 141.36 17.61Q141.73 17.29 141.73 16.71L141.73 16.71Q141.73 16.12 141.36 15.79Q140.99 15.47 140.26 15.47L140.26 15.47L138.94 15.47ZM155.67 22L148.92 22L148.92 13.60L155.51 13.60L155.51 15.44L151.28 15.44L151.28 16.85L155.01 16.85L155.01 18.63L151.28 18.63L151.28 20.17L155.67 20.17L155.67 22ZM161.89 22L159.46 22L163.17 13.60L165.51 13.60L169.23 22L166.76 22L166.10 20.37L162.55 20.37L161.89 22ZM164.33 15.93L163.24 18.61L165.40 18.61L164.33 15.93ZM172.96 17.80L172.96 17.80Q172.96 16.54 173.55 15.54Q174.15 14.55 175.20 13.99Q176.26 13.43 177.57 13.43L177.57 13.43Q178.73 13.43 179.65 13.84Q180.57 14.25 181.19 15.02L181.19 15.02L179.68 16.39Q178.86 15.40 177.70 15.40L177.70 15.40Q177.01 15.40 176.48 15.70Q175.94 16 175.65 16.54Q175.35 17.09 175.35 17.80L175.35 17.80Q175.35 18.51 175.65 19.05Q175.94 19.60 176.48 19.90Q177.01 20.20 177.70 20.20L177.70 20.20Q178.86 20.20 179.68 19.22L179.68 19.22L181.19 20.58Q180.58 21.35 179.65 21.76Q178.73 22.17 177.57 22.17L177.57 22.17Q176.26 22.17 175.20 21.61Q174.15 21.05 173.55 20.05Q172.96 19.06 172.96 17.80ZM187.52 15.48L184.93 15.48L184.93 13.60L192.46 13.60L192.46 15.48L189.89 15.48L189.89 22L187.52 22L187.52 15.48Z" fill="#FFFFFF" x="135.37"/></svg>